<svg width="34" height="34" viewBox="0 0 34 34" fill="none" xmlns="http://www.w3.org/2000/svg">
<path d="M17.0016 2.8335C24.8259 2.8335 31.1683 9.17591 31.1683 17.0002C31.1683 24.8244 24.8259 31.1668 17.0016 31.1668C14.498 31.1711 12.0385 30.5086 9.87582 29.2472L2.84065 31.1668L4.75598 24.1288C3.49367 21.9655 2.8306 19.5049 2.83498 17.0002C2.83498 9.17591 9.1774 2.8335 17.0016 2.8335ZM12.1736 10.3418L11.8903 10.3532C11.7071 10.3658 11.5281 10.4139 11.3633 10.4948C11.2097 10.582 11.0694 10.6908 10.9468 10.8178C10.7768 10.9779 10.6805 11.1167 10.5771 11.2513C10.0531 11.9326 9.77094 12.769 9.77523 13.6285C9.77807 14.3227 9.9594 14.9984 10.2427 15.6302C10.8221 16.9081 11.7756 18.261 13.0336 19.5147C13.3367 19.8165 13.6342 20.1197 13.9544 20.4016C15.5176 21.7777 17.3803 22.7702 19.3944 23.3001L20.1991 23.4233C20.4611 23.4375 20.7232 23.4177 20.9867 23.4049C21.3992 23.3832 21.802 23.2715 22.1668 23.0777C22.3522 22.9818 22.5332 22.8778 22.7094 22.766C22.7094 22.766 22.7694 22.7254 22.8865 22.6385C23.0777 22.4968 23.1953 22.3962 23.354 22.2305C23.473 22.1077 23.5721 21.9651 23.6515 21.8027C23.762 21.5717 23.8725 21.1312 23.9178 20.7642C23.9518 20.4837 23.9419 20.3307 23.9376 20.2358C23.932 20.0842 23.8059 19.927 23.6685 19.8604L22.844 19.4907C22.844 19.4907 21.6115 18.9537 20.8578 18.6109C20.7789 18.5766 20.6944 18.5569 20.6085 18.5528C20.5115 18.5427 20.4136 18.5535 20.3212 18.5845C20.2288 18.6156 20.1441 18.6661 20.073 18.7327C20.0659 18.7299 19.971 18.8107 18.9467 20.0517C18.8879 20.1307 18.807 20.1904 18.7141 20.2232C18.6213 20.256 18.5208 20.2604 18.4254 20.2358C18.3331 20.2112 18.2426 20.18 18.1548 20.1423C17.9791 20.0687 17.9182 20.0403 17.7978 19.9893C16.9845 19.635 16.2316 19.1556 15.5666 18.5684C15.3881 18.4126 15.2223 18.2426 15.0523 18.0782C14.495 17.5445 14.0093 16.9406 13.6073 16.2819L13.5237 16.1473C13.4646 16.0564 13.4161 15.9589 13.3792 15.8569C13.3254 15.6487 13.4656 15.4815 13.4656 15.4815C13.4656 15.4815 13.8099 15.1047 13.97 14.9007C14.1258 14.7023 14.2576 14.5097 14.3426 14.3722C14.5097 14.1031 14.5622 13.8268 14.4743 13.6129C14.0777 12.6439 13.6678 11.6801 13.2446 10.7215C13.1611 10.5317 12.9131 10.3957 12.6879 10.3687C12.6114 10.3593 12.5349 10.3517 12.4584 10.3461C12.2682 10.3352 12.0774 10.3371 11.8875 10.3517L12.1736 10.3418Z" fill="#E76172"/>
</svg>
