<svg width="51" height="51" viewBox="0 0 51 51" fill="none" xmlns="http://www.w3.org/2000/svg">
<path d="M21.3844 15.4791C21.9095 15.3208 22.473 15.3471 22.9811 15.5537C23.4891 15.7602 23.9111 16.1345 24.1768 16.6143L24.2656 16.7931L25.06 18.5583C25.3006 19.0942 25.3787 19.6889 25.2844 20.2687C25.1901 20.8485 24.9276 21.3879 24.5296 21.8199L24.37 21.9783L23.1184 23.1459C22.8928 23.3595 23.062 24.1863 23.878 25.5999C24.6124 26.8719 25.21 27.4659 25.504 27.4983H25.5556L25.6192 27.4863L28.0792 26.7339C28.4098 26.6325 28.7627 26.6285 29.0955 26.7224C29.4283 26.8162 29.7271 27.004 29.956 27.2631L30.0652 27.4011L31.6936 29.6571C32.0128 30.0993 32.1718 30.637 32.1445 31.1817C32.1173 31.7263 31.9053 32.2454 31.5436 32.6535L31.3972 32.8047L30.7468 33.4215C30.1628 33.9746 29.4322 34.3484 28.6419 34.4984C27.8516 34.6483 27.0349 34.5682 26.2888 34.2675C23.9668 33.3315 21.8572 31.1931 19.9408 27.8739C18.0208 24.5463 17.2228 21.6459 17.5792 19.1619C17.6871 18.411 17.9963 17.7034 18.474 17.1141C18.9517 16.5248 19.5801 16.076 20.2924 15.8151L20.524 15.7383L21.3844 15.4791Z" fill="#7D7777"/>
<circle cx="25.3648" cy="25.3649" r="24" transform="rotate(-0.84235 25.3648 25.3649)" stroke="#FFA1AD" stroke-width="2"/>
</svg>
